<?xml version="1.0" standalone="no"?>
<!DOCTYPE svg PUBLIC "-//W3C//DTD SVG 20010904//EN"
 "http://www.w3.org/TR/2001/REC-SVG-20010904/DTD/svg10.dtd">
<svg version="1.0" xmlns="http://www.w3.org/2000/svg"
 width="853.000000pt" height="1280.000000pt" viewBox="0 0 853.000000 1280.000000"
 preserveAspectRatio="xMidYMid meet">

<g transform="translate(0.000000,1280.000000) scale(0.100000,-0.100000)"
fill="#000000" stroke="none">
<path d="M4018 10063 c-22 -5 -22 2 -2 -238 14 -178 14 -197 -1 -228 -28 -60
-136 -88 -205 -52 -42 22 -57 76 -79 294 -11 106 -22 195 -24 197 -2 2 -38 1
-80 -2 -91 -8 -85 18 -57 -230 23 -201 39 -270 77 -314 96 -115 369 -114 485
3 56 55 63 102 48 325 -6 103 -13 202 -16 220 l-5 32 -62 -1 c-34 -1 -70 -3
-79 -6z"/>
<path d="M4366 10054 c-3 -9 -6 -37 -6 -64 l0 -48 98 -6 c53 -4 131 -10 172
-14 l74 -7 -139 -136 c-77 -75 -164 -157 -192 -184 -51 -46 -53 -50 -53 -101
l0 -53 43 -5 c23 -3 92 -8 152 -11 61 -4 170 -13 244 -21 74 -8 135 -13 137
-12 1 2 6 31 9 65 l7 62 -33 5 c-19 3 -99 10 -178 16 -80 6 -146 12 -148 14
-2 2 72 75 164 162 92 88 180 171 195 186 23 22 28 35 28 76 l0 49 -67 7
c-114 11 -436 36 -469 36 -20 0 -34 -6 -38 -16z"/>
<path d="M5087 9783 c-26 -120 -47 -236 -47 -258 1 -202 378 -327 529 -176 22
22 48 62 59 92 27 74 115 409 109 415 -3 3 -37 14 -77 24 l-71 18 -9 -21 c-5
-12 -28 -94 -50 -182 -68 -263 -77 -279 -169 -279 -65 0 -122 30 -144 77 -21
42 -24 22 44 304 21 89 39 164 39 166 0 2 -28 10 -62 16 -35 7 -72 15 -84 17
-19 5 -23 -9 -67 -213z"/>
<path d="M3250 9970 c-41 -10 -160 -37 -265 -60 -104 -24 -194 -46 -198 -50
-7 -6 16 -94 30 -119 1 -1 64 12 140 29 167 40 193 44 193 35 0 -4 -56 -105
-125 -225 -69 -121 -125 -227 -125 -238 0 -16 18 -81 25 -90 2 -2 85 16 370
79 50 11 116 25 148 32 52 10 58 13 53 31 -3 12 -9 38 -12 59 -4 20 -9 39 -13
41 -3 3 -76 -11 -161 -30 -85 -19 -162 -34 -172 -32 -18 3 -18 3 176 339 l66
116 -12 51 c-13 59 -8 58 -118 32z"/>
<path d="M4033 9210 c-167 -18 -414 -75 -541 -124 -97 -38 -96 -36 -59 -79
l32 -38 65 25 c94 36 286 83 425 103 169 24 555 24 715 -1 178 -27 293 -54
435 -101 391 -129 712 -328 987 -614 197 -204 323 -383 425 -606 132 -287 182
-501 190 -820 7 -283 -22 -481 -108 -730 -45 -132 -63 -172 -128 -293 -295
-542 -795 -938 -1411 -1117 -239 -69 -401 -94 -661 -102 -371 -11 -669 37
-1023 163 -115 41 -335 144 -429 200 -162 98 -344 240 -476 374 -411 416 -626
919 -625 1460 0 182 13 289 56 460 l31 124 -38 33 c-22 18 -43 32 -49 30 -26
-9 -86 -264 -106 -449 -71 -667 227 -1374 780 -1850 734 -632 1834 -822 2759
-477 844 316 1439 1043 1530 1871 34 304 -2 646 -95 928 -295 886 -1140 1529
-2143 1630 -115 11 -428 11 -538 0z"/>
<path d="M4094 9009 c-193 -17 -437 -70 -573 -125 l-40 -16 14 -45 c8 -25 18
-49 22 -53 4 -5 40 3 78 16 308 106 746 139 1081 80 493 -87 960 -348 1273
-711 290 -336 446 -694 482 -1108 30 -331 -39 -684 -190 -980 -107 -210 -189
-324 -361 -501 -308 -316 -703 -526 -1155 -612 -168 -32 -467 -44 -642 -25
-677 71 -1292 443 -1648 996 -75 115 -176 324 -216 442 -74 222 -107 524 -80
727 l12 89 -51 50 c-28 27 -52 48 -54 46 -12 -14 -28 -157 -33 -290 -16 -443
105 -834 377 -1219 460 -651 1299 -1031 2115 -961 343 30 580 97 880 248 445
224 817 611 1018 1058 152 339 198 813 115 1195 -31 147 -91 316 -157 451
-411 827 -1328 1332 -2267 1248z"/>
<path d="M3125 8954 c-168 -29 -335 -141 -431 -287 -26 -40 -49 -74 -50 -76
-2 -2 -17 13 -35 34 -47 53 -149 123 -231 157 -55 23 -94 32 -172 37 -149 11
-147 12 -182 -129 -35 -140 -21 -274 42 -389 13 -24 23 -45 21 -47 -1 -2 -36
-8 -77 -15 -101 -15 -167 -41 -256 -101 -110 -74 -113 -85 -54 -203 76 -153
154 -227 295 -281 57 -22 92 -28 188 -32 98 -4 114 -6 95 -16 -14 -7 -28 -28
-37 -54 l-13 -43 51 -54 c28 -30 51 -58 51 -64 0 -6 19 -20 43 -32 23 -12 49
-27 57 -34 8 -7 40 -21 70 -30 90 -27 101 -34 58 -34 -44 -1 -70 -10 -62 -22
9 -16 62 -10 105 13 39 20 45 21 113 8 117 -23 258 -18 341 12 103 37 100 37
103 5 3 -27 2 -27 -35 -21 -42 6 -123 -11 -123 -26 0 -5 12 -13 28 -16 15 -4
32 -10 37 -15 6 -4 30 -3 54 3 24 6 46 7 50 2 7 -8 129 -615 146 -725 3 -21
12 -42 20 -49 17 -14 44 4 130 84 48 45 49 47 20 41 -16 -4 -34 -7 -40 -8 -5
-1 -17 34 -26 78 -41 201 -150 752 -152 765 -2 12 31 18 178 32 99 9 268 26
375 37 107 11 239 23 292 27 112 8 97 26 123 -145 8 -58 17 -106 18 -108 2 -1
28 19 57 45 l54 48 -12 85 c-7 46 -15 93 -18 104 -4 16 30 53 161 179 91 87
168 157 170 154 2 -2 11 -48 19 -102 8 -54 18 -101 21 -104 3 -3 29 17 58 46
l51 52 -17 107 c-27 158 -34 182 -63 195 -28 13 -103 8 -671 -44 -194 -18
-355 -30 -358 -27 -3 3 3 36 12 74 l18 67 -58 53 c-76 70 -181 121 -287 142
-47 10 -86 18 -88 19 -2 1 12 33 32 71 85 170 87 308 7 484 -42 93 -62 100
-216 73z m-71 -112 c-83 -46 -235 -173 -282 -237 l-23 -30 20 41 c31 65 152
180 224 213 67 32 111 41 61 13z m-717 -129 c17 -8 49 -30 70 -49 42 -39 34
-36 -44 13 -29 18 -56 33 -61 33 -4 0 -17 7 -28 16 -18 14 -18 15 6 8 14 -3
39 -13 57 -21z m956 -474 c57 -16 39 -21 -43 -13 -45 4 -67 10 -58 15 18 12
55 11 101 -2z m-123 -17 c3 -3 -14 -2 -37 2 -24 3 -44 2 -48 -4 -3 -5 -16 -10
-28 -10 -19 1 -18 3 8 15 27 12 92 11 105 -3z m217 -8 c-3 -3 -12 -4 -19 -1
-8 3 -5 6 6 6 11 1 17 -2 13 -5z m-1324 -51 c-7 -2 -19 -2 -25 0 -7 3 -2 5 12
5 14 0 19 -2 13 -5z m-50 -10 c-7 -2 -19 -2 -25 0 -7 3 -2 5 12 5 14 0 19 -2
13 -5z m2470 -301 c-38 -37 -108 -106 -158 -153 l-90 -85 -200 -17 c-183 -17
-495 -48 -637 -63 -64 -7 -67 -4 -47 53 6 19 31 44 67 69 31 22 100 74 154
116 l98 78 197 15 c178 14 458 39 538 48 17 2 56 5 88 6 l57 1 -67 -68z
m-1628 38 c-3 -5 -15 -10 -26 -10 -11 0 -17 5 -14 10 3 6 15 10 26 10 11 0 17
-4 14 -10z"/>
<path d="M4280 7820 c0 -5 4 -10 9 -10 6 0 13 5 16 10 3 6 -1 10 -9 10 -9 0
-16 -4 -16 -10z"/>
<path d="M3920 7761 c0 -12 29 -23 41 -15 18 10 9 24 -16 24 -14 0 -25 -4 -25
-9z"/>
<path d="M4112 7718 c5 -15 37 -18 41 -3 1 6 -9 12 -22 13 -16 3 -22 -1 -19
-10z"/>
<path d="M3715 7690 c-4 -7 -3 -16 2 -21 12 -12 45 0 40 15 -5 15 -34 19 -42
6z"/>
<path d="M3605 7650 c-3 -5 -1 -10 4 -10 6 0 11 5 11 10 0 6 -2 10 -4 10 -3 0
-8 -4 -11 -10z"/>
<path d="M4185 8703 c-248 -20 -487 -76 -657 -154 -39 -17 -49 -72 -19 -102
19 -19 24 -20 53 -8 208 83 393 126 597 141 394 28 772 -61 1094 -258 94 -57
115 -60 143 -16 26 39 11 65 -63 111 -223 136 -491 232 -748 268 -101 14 -326
24 -400 18z"/>
<path d="M5473 8203 c-48 -43 -205 -186 -349 -318 -143 -132 -278 -255 -300
-274 -21 -19 -93 -85 -159 -146 -124 -114 -353 -323 -555 -504 -63 -57 -157
-143 -209 -190 -52 -47 -99 -90 -105 -96 -7 -5 -39 -35 -72 -65 -63 -58 -178
-162 -359 -325 -60 -54 -137 -124 -170 -154 -33 -31 -107 -99 -164 -151 -156
-142 -180 -168 -187 -198 -3 -15 -8 -33 -10 -41 -7 -23 34 -95 68 -122 45 -33
131 -34 172 -1 27 21 157 138 291 263 33 31 116 107 185 169 69 62 168 152
220 200 144 131 289 262 455 410 83 73 204 183 270 244 66 61 151 140 190 175
38 35 99 92 135 126 36 33 168 155 295 270 126 116 237 217 245 225 32 30 217
198 312 284 53 47 99 93 102 102 10 26 7 84 -6 107 -15 30 -56 67 -85 78 -13
5 -46 9 -74 9 -47 0 -52 -3 -136 -77z"/>
<path d="M5807 7942 c-25 -28 -21 -50 21 -106 177 -235 284 -513 314 -812 22
-227 -19 -508 -106 -717 -154 -373 -459 -693 -843 -886 -387 -193 -859 -250
-1292 -154 -202 44 -460 148 -607 243 -67 45 -79 47 -112 24 -17 -12 -22 -24
-20 -47 2 -26 13 -38 53 -65 220 -144 529 -258 808 -297 244 -34 521 -25 750
25 386 84 758 292 1026 576 229 242 362 492 439 824 24 105 26 134 26 335 1
175 -3 237 -17 305 -54 258 -168 512 -320 718 -33 44 -44 52 -72 52 -18 0 -39
-8 -48 -18z"/>
<path d="M4546 7595 c-20 -20 -21 -35 -2 -35 21 0 41 29 29 41 -7 7 -16 5 -27
-6z"/>
<path d="M2040 7501 c0 -13 41 -41 59 -41 7 0 31 -16 53 -35 37 -34 58 -38 58
-12 0 20 -60 67 -84 67 -12 0 -31 7 -42 15 -22 16 -44 19 -44 6z"/>
<path d="M2055 7440 c-3 -5 -1 -19 5 -30 13 -24 87 -80 105 -80 7 0 29 -13 50
-30 40 -32 85 -39 104 -17 14 18 4 27 -31 27 -15 0 -28 5 -28 10 0 6 5 10 10
10 6 0 10 5 10 10 0 6 -12 10 -27 10 -28 0 -141 59 -163 85 -14 17 -26 19 -35
5z"/>
<path d="M4470 7429 c0 -5 5 -7 10 -4 6 3 10 8 10 11 0 2 -4 4 -10 4 -5 0 -10
-5 -10 -11z"/>
<path d="M5169 7367 c-39 -30 -100 -89 -97 -92 2 -2 96 -16 208 -30 423 -53
445 -56 429 -68 -2 -2 -90 -60 -195 -130 l-192 -127 -273 39 c-208 29 -278 36
-290 27 -50 -35 -100 -86 -94 -95 3 -6 19 -11 35 -11 16 0 107 -11 202 -24 95
-14 216 -30 268 -36 52 -6 99 -15 103 -19 8 -8 -2 -224 -28 -593 -8 -114 -15
-219 -15 -233 0 -25 -2 -26 -42 -21 -24 3 -167 22 -318 41 -431 56 -552 73
-560 82 -3 4 -3 80 2 168 5 88 7 204 6 257 l-3 97 -80 -71 c-154 -136 -296
-268 -289 -268 3 0 18 8 32 19 31 22 183 101 195 101 4 0 7 -87 7 -193 0 -179
1 -195 19 -211 15 -14 67 -24 208 -42 349 -45 647 -84 760 -99 62 -8 120 -12
130 -8 20 7 409 268 515 345 39 29 70 59 72 71 3 12 12 141 21 287 9 146 20
332 25 413 15 229 13 301 -7 320 -13 11 -115 29 -348 61 -181 26 -343 49 -360
51 -16 3 -37 -1 -46 -8z m622 -672 c-12 -170 -22 -332 -24 -360 l-2 -50 -198
-133 c-110 -73 -201 -131 -204 -129 -2 3 3 124 12 269 29 475 34 531 49 546 8
8 97 69 198 136 l183 122 3 -46 c2 -25 -6 -184 -17 -355z"/>
<path d="M5650 6880 c0 -5 7 -10 15 -10 8 0 15 5 15 10 0 6 -7 10 -15 10 -8 0
-15 -4 -15 -10z"/>
<path d="M5560 6736 c-10 -13 -9 -17 4 -22 22 -8 49 3 44 19 -7 18 -33 20 -48
3z"/>
<path d="M5547 6483 c-4 -3 -7 -15 -7 -25 0 -13 8 -18 29 -18 28 0 47 22 35
41 -6 10 -47 12 -57 2z"/>
<path d="M5520 6264 c0 -9 5 -14 12 -12 18 6 21 28 4 28 -9 0 -16 -7 -16 -16z"/>
<path d="M5455 6180 c3 -5 8 -10 11 -10 2 0 4 5 4 10 0 6 -5 10 -11 10 -5 0
-7 -4 -4 -10z"/>
<path d="M3970 7340 c-24 -24 -25 -43 -4 -64 36 -36 112 -2 97 43 -15 42 -61
53 -93 21z"/>
<path d="M3720 7320 c0 -5 7 -10 16 -10 8 0 12 5 9 10 -3 6 -10 10 -16 10 -5
0 -9 -4 -9 -10z"/>
<path d="M3442 7312 c-35 -6 -47 -37 -22 -62 11 -11 25 -20 31 -20 25 0 49 22
49 45 0 27 -24 43 -58 37z"/>
<path d="M2364 7248 c-19 -21 -19 -21 6 -15 14 4 35 7 48 7 13 0 22 6 22 15 0
23 -54 19 -76 -7z"/>
<path d="M2230 7230 c0 -6 10 -15 23 -20 12 -5 33 -19 47 -30 23 -19 31 -20
77 -10 28 6 59 18 69 26 17 14 12 15 -53 9 -56 -5 -73 -3 -80 8 -10 18 -83 33
-83 17z"/>
<path d="M2626 7205 c-67 -45 -135 -75 -172 -75 -24 0 -34 -4 -32 -12 7 -21
79 -20 138 1 136 48 223 81 229 86 12 12 -26 25 -75 25 -38 0 -61 -6 -88 -25z"/>
<path d="M2850 7205 c-10 -12 -9 -16 6 -21 11 -3 29 -10 42 -15 29 -11 149
-12 137 -1 -16 14 -125 52 -150 52 -12 0 -28 -7 -35 -15z"/>
<path d="M3607 7162 c-45 -49 20 -113 67 -66 30 30 9 84 -33 84 -10 0 -25 -8
-34 -18z"/>
<path d="M5010 7170 c-13 -9 -13 -11 0 -20 21 -14 55 -8 55 10 0 18 -34 24
-55 10z"/>
<path d="M2722 7153 c4 -20 79 -45 123 -41 29 3 27 4 -26 31 -65 32 -102 35
-97 10z"/>
<path d="M5350 7106 c0 -22 19 -30 35 -16 22 18 18 30 -10 30 -15 0 -25 -6
-25 -14z"/>
<path d="M4070 7100 c0 -5 7 -10 15 -10 8 0 15 5 15 10 0 6 -7 10 -15 10 -8 0
-15 -4 -15 -10z"/>
<path d="M5159 7089 c-12 -8 -12 -10 1 -19 17 -11 32 -8 37 7 5 15 -21 23 -38
12z"/>
<path d="M3872 7014 c-28 -19 -28 -58 -1 -78 19 -13 25 -13 50 -1 39 21 48 54
19 77 -27 22 -39 22 -68 2z"/>
<path d="M2320 6991 c-24 -47 -5 -295 35 -453 47 -183 112 -333 221 -509 75
-121 100 -149 133 -149 37 0 64 21 63 51 0 13 -30 69 -67 124 -165 244 -259
522 -272 807 -6 121 -7 127 -30 137 -37 17 -71 13 -83 -8z"/>
<path d="M3492 6973 c4 -21 33 -25 33 -3 0 8 -8 16 -18 18 -14 3 -18 -1 -15
-15z"/>
<path d="M3477 6903 c-3 -5 -2 -15 3 -22 10 -17 43 -6 38 12 -6 15 -34 22 -41
10z"/>
<path d="M3614 6784 c-8 -31 6 -47 36 -42 52 7 52 68 1 68 -25 0 -32 -5 -37
-26z"/>
<path d="M4576 6785 c-8 -22 28 -42 70 -37 l38 5 -29 23 c-34 27 -70 31 -79 9z"/>
<path d="M4984 6655 c-13 -20 -14 -31 -6 -49 23 -50 112 -36 112 19 0 55 -75
77 -106 30z"/>
<path d="M4400 6660 c0 -5 5 -10 11 -10 5 0 7 5 4 10 -3 6 -8 10 -11 10 -2 0
-4 -4 -4 -10z"/>
<path d="M4542 6580 c-21 -20 -21 -40 1 -67 12 -16 69 -17 85 -1 29 29 -1 88
-44 88 -11 0 -30 -9 -42 -20z"/>
<path d="M4430 6400 c0 -5 5 -10 10 -10 6 0 10 5 10 10 0 6 -4 10 -10 10 -5 0
-10 -4 -10 -10z"/>
<path d="M5080 6400 c0 -5 5 -10 11 -10 5 0 7 5 4 10 -3 6 -8 10 -11 10 -2 0
-4 -4 -4 -10z"/>
<path d="M4816 6369 c-25 -36 4 -79 54 -79 33 0 50 17 50 50 0 35 -17 50 -56
50 -22 0 -38 -7 -48 -21z"/>
<path d="M4467 6252 c-34 -37 -11 -83 41 -84 64 -2 84 64 27 90 -36 16 -49 15
-68 -6z"/>
<path d="M5030 6160 c-11 -11 -20 -27 -20 -35 0 -8 9 -24 20 -35 39 -39 103
-17 103 35 0 52 -64 74 -103 35z"/>
<path d="M4745 6131 c-3 -5 -1 -12 5 -16 12 -7 30 2 30 16 0 12 -27 12 -35 0z"/>
<path d="M2629 4832 c-7 -15 -15 -29 -16 -32 -2 -3 37 -26 87 -50 49 -24 90
-48 90 -52 0 -4 -78 -47 -172 -94 -95 -47 -174 -87 -174 -88 -1 0 -5 -11 -8
-24 -7 -21 4 -27 141 -93 81 -39 151 -73 155 -75 4 -3 14 9 22 25 19 36 20 35
-99 90 l-90 42 55 29 c30 17 107 56 170 89 101 52 162 94 149 105 -2 1 -70 37
-150 79 l-146 77 -14 -28z"/>
<path d="M5951 4704 c-12 -15 -21 -33 -21 -40 0 -19 -10 -18 -25 2 -11 15 -14
15 -41 -2 -16 -10 -30 -19 -32 -20 -2 -1 136 -263 144 -273 5 -5 63 20 70 30
3 5 -16 48 -41 97 -58 112 -56 131 23 178 1 0 -2 13 -7 28 -13 34 -43 34 -70
0z"/>
<path d="M5606 4560 c-36 -11 -96 -52 -96 -66 0 -5 6 -19 14 -29 13 -18 15
-18 46 8 48 41 130 35 130 -10 0 -7 -6 -13 -13 -13 -29 0 -113 -51 -130 -79
-25 -42 -21 -74 12 -110 23 -25 37 -31 71 -31 47 0 92 20 114 51 10 14 21 19
32 15 9 -3 31 -1 49 5 l32 12 -49 106 c-59 126 -82 151 -141 150 -23 0 -55 -5
-71 -9z m130 -185 c9 -49 -16 -77 -65 -73 -32 3 -36 6 -39 35 -3 28 1 34 35
52 53 28 61 26 69 -14z"/>
<path d="M2979 4531 c-49 -16 -82 -45 -105 -96 -27 -58 -30 -95 -9 -134 32
-63 104 -101 193 -101 40 0 42 1 42 30 0 29 -2 30 -44 30 -59 0 -110 34 -114
78 -2 18 1 32 8 32 6 0 52 -16 101 -35 50 -19 95 -35 99 -35 4 0 13 14 19 31
26 75 3 147 -56 178 -48 24 -100 33 -134 22z m106 -76 c26 -25 30 -41 16 -64
-7 -11 -20 -9 -70 9 -33 13 -61 25 -61 29 1 21 43 50 73 51 10 0 29 -11 42
-25z"/>
<path d="M4957 4513 c-22 -4 -32 -14 -48 -50 -24 -56 -24 -55 8 -51 19 2 34
15 54 48 29 47 34 61 22 59 -5 -1 -21 -4 -36 -6z"/>
<path d="M5294 4446 c-88 -41 -122 -116 -90 -200 20 -51 47 -79 100 -101 45
-19 86 -14 153 17 45 21 51 33 30 61 -11 16 -14 16 -52 -3 -49 -25 -76 -25
-107 -1 -30 24 -53 90 -44 125 8 34 47 58 97 60 38 1 40 2 37 31 -3 26 -7 30
-38 33 -21 1 -55 -7 -86 -22z"/>
<path d="M3256 4308 c-21 -73 -40 -141 -43 -150 -4 -12 5 -19 33 -27 20 -6 40
-8 44 -6 4 2 17 42 30 87 27 100 55 133 107 125 29 -5 35 -2 48 23 19 37 19
37 -11 44 -15 4 -38 1 -56 -9 -39 -19 -38 -19 -38 4 0 18 -6 22 -61 37 -12 3
-23 -24 -53 -128z"/>
<path d="M5009 4373 c-15 -4 -14 -11 2 -81 33 -136 21 -182 -50 -182 -39 0
-44 11 -70 139 -11 51 -21 95 -23 96 -4 4 -77 -11 -83 -17 -5 -5 43 -216 55
-237 35 -66 130 -69 198 -8 20 19 22 19 22 2 0 -15 6 -17 41 -12 22 3 42 7 44
9 3 3 -49 242 -61 281 -5 16 -36 21 -75 10z"/>
<path d="M3572 4344 c-96 -49 -120 -185 -46 -259 53 -53 159 -70 224 -35 62
33 96 141 67 212 -33 79 -165 123 -245 82z m151 -75 c21 -26 22 -78 3 -124
-33 -78 -125 -70 -150 12 -9 30 11 100 36 125 26 26 85 19 111 -13z"/>
<path d="M4540 4298 c-34 -17 -51 -35 -68 -70 -42 -85 -8 -173 84 -218 45 -22
50 -27 40 -43 -9 -14 -7 -21 7 -31 26 -20 20 -34 -18 -42 -19 -3 -35 -10 -35
-14 0 -23 94 -15 125 10 22 18 18 46 -10 68 -14 11 -25 22 -25 25 0 2 20 12
45 21 54 21 58 27 45 60 -9 26 -11 26 -39 11 -78 -40 -141 3 -141 96 0 59 35
91 97 88 40 -3 47 0 55 20 12 34 2 41 -60 41 -40 0 -72 -7 -102 -22z"/>
<path d="M4160 4297 c-39 -11 -45 -15 -42 -36 3 -33 3 -33 56 -20 51 13 99 0
110 -28 10 -24 -3 -33 -47 -33 -100 0 -157 -40 -157 -109 1 -40 14 -62 47 -79
30 -16 102 -15 135 2 24 13 29 13 36 0 6 -10 20 -14 42 -12 l33 3 -2 118 c-2
127 -10 158 -48 182 -32 22 -108 27 -163 12z m128 -199 c7 -57 -79 -93 -112
-47 -29 41 7 81 69 77 35 -3 40 -6 43 -30z"/>
</g>
</svg>
