<svg width="312" height="64" viewBox="0 0 312 64" fill="none" xmlns="http://www.w3.org/2000/svg">
  <rect width="312" height="64" rx="16" fill="#FFF7CF"/>
  <rect x="8" y="8" width="48" height="48" rx="12" fill="#FDE68A"/>
  <path d="M23 28.6C22.1 27.8 21.5 26.7 21.5 25.4C21.5 23.1 23.3 21.2 25.5 21.1C26.6 18.8 29 17.3 31.7 17.3C34.2 17.3 36.4 18.6 37.6 20.6C40.5 20.7 42.8 23.1 42.8 26C42.8 27.7 42 29.3 40.8 30.3V40.2C40.8 42.3 39.1 44 37 44H27C24.8 44 23 42.3 23 40.2V28.6Z" stroke="#211D18" stroke-width="2.7" stroke-linejoin="round"/>
  <path d="M27.5 30H36.5" stroke="#211D18" stroke-width="2.7" stroke-linecap="round"/>
  <text x="70" y="32" fill="#211D18" font-family="Georgia, serif" font-size="26" font-weight="800">Zuzu Zero</text>
  <text x="71" y="50" fill="#56704B" font-family="Arial, sans-serif" font-size="11" font-weight="800" letter-spacing="4">SABOR SEM AÇÚCAR</text>
</svg>
